<svg xmlns="http://www.w3.org/2000/svg" width="24" height="24" fill="currentColor" class="icon-instagram" viewBox="0 0 24 24">
      <path d="M9.13449 23.734V15.7247H6.65139V12.0442H9.13449V10.4583C9.13449 6.35831 10.9893 4.45835 15.0141 4.45835C15.4165 4.45835 15.9726 4.5005 16.4875 4.56173C16.8731 4.60141 17.2557 4.6668 17.6327 4.75744V8.09468C17.4147 8.07435 17.1961 8.0623 16.9773 8.05855C16.7321 8.05218 16.4868 8.04917 16.2416 8.04952C15.532 8.04952 14.9779 8.14587 14.5604 8.35965C14.2797 8.50048 14.0437 8.71664 13.8789 8.98394C13.6199 9.40549 13.5035 9.9826 13.5035 10.7424V12.0442H17.4369L17.0495 14.1549L16.7615 15.7247H13.5035V24C19.4674 23.2794 24.0883 18.2017 24.0883 12.0442C24.0883 5.39277 18.6956 0 12.0442 0C5.39277 0 0 5.39277 0 12.0442C0 17.6929 3.88826 22.4323 9.13449 23.734Z" fill="#201C1A"/>
    </svg>